<svg width="153" height="22" viewBox="0 0 153 22" fill="none" xmlns="http://www.w3.org/2000/svg">
<path d="M0.541193 21H5.46307V14.6761H8.80398C13.4673 14.6761 16.3807 11.9119 16.3807 7.68608C16.3807 3.5 13.527 0.636363 8.95312 0.636363H0.541193V21ZM5.46307 10.7983V4.60369H7.8892C10.0966 4.60369 11.2798 5.79688 11.2798 7.68608C11.2798 9.56534 10.0966 10.7983 7.8892 10.7983H5.46307ZM18.8068 21H23.7287V14.0298H26.2543L29.973 21H35.3423L31.1165 13.2443C33.3537 12.2301 34.6463 10.2315 34.6463 7.41761C34.6463 3.23153 31.7926 0.636363 27.2188 0.636363H18.8068V21ZM23.7287 10.152V4.60369H26.1548C28.3622 4.60369 29.5455 5.52841 29.5455 7.41761C29.5455 9.30682 28.3622 10.152 26.1548 10.152H23.7287ZM56.5661 10.8182C56.5661 4.08665 52.3104 0.357954 46.8416 0.357954C41.353 0.357954 37.1271 4.08665 37.1271 10.8182C37.1271 17.5199 41.353 21.2784 46.8416 21.2784C52.3104 21.2784 56.5661 17.5497 56.5661 10.8182ZM51.5348 10.8182C51.5348 14.8054 49.7848 16.9631 46.8416 16.9631C43.9084 16.9631 42.1484 14.8054 42.1484 10.8182C42.1484 6.83097 43.9084 4.67329 46.8416 4.67329C49.7848 4.67329 51.5348 6.83097 51.5348 10.8182Z" fill="#D4AB8C"/>
<path d="M66.429 7.90909V21H83.5852V7.90909H80.6108V18.4602H76.4943V7.90909H73.5199V18.4602H69.4034V7.90909H66.429ZM92.4126 21.2557C96.2479 21.2557 98.6854 18.554 98.6854 14.5057C98.6854 10.4489 96.2479 7.73864 92.4126 7.73864C88.5774 7.73864 86.1399 10.4489 86.1399 14.5057C86.1399 18.554 88.5774 21.2557 92.4126 21.2557ZM92.4297 18.7841C90.3075 18.7841 89.2678 16.892 89.2678 14.4972C89.2678 12.1023 90.3075 10.1847 92.4297 10.1847C94.5178 10.1847 95.5575 12.1023 95.5575 14.4972C95.5575 16.892 94.5178 18.7841 92.4297 18.7841ZM101.304 21H104.253V10.4403H109.384V21H112.358V7.90909H101.304V21ZM118.505 16.8239V7.90909H115.531V21H118.71L123.934 12.0767V21H126.917V7.90909H123.746L118.505 16.8239ZM133.06 7.90909H130.085V21H133.06V15.7074H138.131V21H141.097V7.90909H138.131V13.1761H133.06V7.90909ZM152.877 7.90909H144.218V21H147.235V10.4403H152.877V7.90909Z" fill="#21150C"/>
</svg>
