<svg version="1.0" xmlns="http://www.w3.org/2000/svg" width="1098.667" height="1706.667" viewBox="0 0 824 1280"><path d="M393.9 26.3C330.3 111.4 273.4 199.4 210.5 310c-31.9 56.2-48.8 87.4-70.1 130C65.7 589.4 15.6 728.1 2.3 822c-2.4 17.3-2.4 55 .1 75 6.3 52.3 21.2 100.8 45.7 149 22.8 45 50.5 82.8 87 118.5 79.7 78 182 118.2 293.4 115.2 59.7-1.6 110.9-13.9 162-39 39.1-19.2 70.2-41.5 102.6-73.7 34.5-34.3 60.8-70.8 83.3-115.7 35.2-70.3 52.9-155.9 46.1-222.1-11.9-114.8-83.2-304.8-178-474.6-48.2-86.3-104.1-177.2-150.8-245.1C468.1 72.3 417 2.3 414.1.6c-.3-.2-9.5 11.3-20.2 25.7z" fill="#ff9800"/></svg>