<svg width="17" height="15" viewBox="0 0 17 15" fill="none" xmlns="http://www.w3.org/2000/svg">
<path d="M13.7443 12.7489C13.7443 13.3288 13.2741 13.7994 12.6937 13.7994H2.18805C1.60761 13.7994 1.13748 13.3288 1.13748 12.7489V2.24322C1.13748 1.66279 1.60761 1.19266 2.18805 1.19266H12.6937C13.2741 1.19266 13.7443 1.66279 13.7443 2.24322V3.81907H14.7948V2.24322C14.7948 1.08288 13.8541 0.14209 12.6937 0.14209H2.18805C1.0277 0.14209 0.0869141 1.08288 0.0869141 2.24322V12.7489C0.0869141 13.9092 1.0277 14.85 2.18805 14.85H12.6937C13.8541 14.85 14.7948 13.9092 14.7948 12.7489V11.173H13.7443V12.7489ZM16.3707 6.97077H5.03194L7.78598 4.21672C7.99137 4.01188 7.99137 3.67883 7.78598 3.47399C7.5806 3.2686 7.24809 3.2686 7.04325 3.47399L3.41931 7.0984C3.30953 7.20766 3.26278 7.35263 3.27012 7.49605C3.26275 7.63945 3.30953 7.78444 3.41879 7.8937L7.04271 11.5176C7.24755 11.723 7.5806 11.723 7.78544 11.5176C7.99082 11.3128 7.99082 10.9797 7.78544 10.7749L5.03194 8.02133H16.3707C16.6606 8.02133 16.896 7.78601 16.896 7.49605C16.896 7.2061 16.6606 6.97077 16.3707 6.97077Z" fill="white"/>
</svg>
