<svg width="14" height="24" viewBox="0 0 14 24" fill="none" xmlns="http://www.w3.org/2000/svg">
<path d="M13.5822 11.0828C14.1393 11.6127 14.1393 12.4717 13.5822 13.0015L2.43528 23.6026C1.87818 24.1325 0.974935 24.1325 0.41783 23.6026C-0.139275 23.0728 -0.139275 22.2138 0.41783 21.684L11.5647 11.0829C12.1218 10.553 13.0251 10.553 13.5822 11.0828Z" fill="#969696"/>
<path d="M0.417828 0.39737C0.974933 -0.132457 1.87818 -0.132457 2.43528 0.39737L13.5822 10.9985C14.1393 11.5283 14.1393 12.3873 13.5822 12.9172C13.0251 13.447 12.1218 13.447 11.5647 12.9172L0.417829 2.31605C-0.139276 1.78622 -0.139276 0.927198 0.417828 0.39737Z" fill="#969696"/>
</svg>
