<svg width="30" height="27" viewBox="0 0 30 27" fill="none" xmlns="http://www.w3.org/2000/svg">
<path d="M1.3999 1.69995H6.59992" stroke="white" stroke-width="2" stroke-miterlimit="10" stroke-linecap="round"/>
<path d="M6.6001 1.69995L11.0001 18.8999" stroke="white" stroke-width="2" stroke-miterlimit="10" stroke-linecap="round"/>
<path d="M11.8 18.8999H28.3" stroke="white" stroke-width="2" stroke-miterlimit="10" stroke-linecap="round"/>
<path d="M13.8 25.7C15.4569 25.7 16.8 24.3569 16.8 22.7C16.8 21.0432 15.4569 19.7 13.8 19.7C12.1431 19.7 10.8 21.0432 10.8 22.7C10.8 24.3569 12.1431 25.7 13.8 25.7Z" stroke="white" stroke-width="2" stroke-miterlimit="10" stroke-linecap="round"/>
<path d="M25.3 25.7C26.9568 25.7 28.3 24.3569 28.3 22.7C28.3 21.0432 26.9568 19.7 25.3 19.7C23.6431 19.7 22.3 21.0432 22.3 22.7C22.3 24.3569 23.6431 25.7 25.3 25.7Z" stroke="white" stroke-width="2" stroke-miterlimit="10" stroke-linecap="round"/>
<path d="M25.7001 14.5999H11.3001C10.7001 14.5999 10.1001 14.1999 10.0001 13.5999L8.10006 6.89995C7.90006 5.99995 8.50005 5.19995 9.40005 5.19995H27.5001C28.4001 5.19995 29.1001 6.09995 28.8001 6.89995L26.9001 13.5999C26.9001 14.1999 26.4001 14.5999 25.7001 14.5999Z" stroke="white" stroke-width="2" stroke-miterlimit="10" stroke-linecap="round"/>
</svg>
