<svg width="149" height="196" viewBox="0 0 149 196" fill="none" xmlns="http://www.w3.org/2000/svg">
<path d="M28 150.159V179C28 179.552 28.4477 180 29 180H121C121.552 180 122 179.552 122 179V150.239C122 149.8 121.714 149.412 121.294 149.283L116.206 147.717C115.786 147.588 115.498 147.202 115.461 146.765C115.285 144.674 114.552 140.173 114.095 137.546C114.036 137.206 114.156 136.86 114.412 136.629L118.38 133.058C118.739 132.735 118.816 132.201 118.563 131.79L111.462 120.251C111.198 119.822 110.656 119.656 110.197 119.865L106.184 121.689C105.779 121.873 105.303 121.766 104.999 121.44C102.84 119.122 99.7915 116.947 98.058 115.845C97.7213 115.631 97.5341 115.244 97.5869 114.849L98.3965 108.776C98.4573 108.32 98.1991 107.882 97.7709 107.714L85.2788 102.806C84.8281 102.629 84.3153 102.8 84.0615 103.213L80.7929 108.524C80.6109 108.82 80.2905 109 79.9433 109H71.0956C70.7278 109 70.3912 108.798 70.2168 108.474L67.4156 103.272C67.1777 102.83 66.6495 102.633 66.1804 102.811L53.2568 107.713C52.8155 107.88 52.5513 108.333 52.6231 108.8L53.3792 113.715C53.4499 114.174 53.1942 114.621 52.7916 114.854C50.8142 115.999 47.7023 118.841 45.9383 120.567C45.6676 120.832 45.273 120.924 44.9137 120.805L40.2523 119.251C39.8116 119.104 39.3278 119.28 39.0844 119.675L31.9368 131.29C31.6838 131.701 31.7607 132.235 32.1195 132.558L35.934 135.991C36.2684 136.292 36.3568 136.777 36.2024 137.2C35.3385 139.564 35.0529 143.535 35.0069 145.842C34.999 146.242 34.7616 146.602 34.3939 146.76L28.6061 149.24C28.2384 149.398 28 149.759 28 150.159Z" fill="url(#paint0_linear)" stroke="#09233D" stroke-width="3"/>
<path d="M122 46.8406V16C122 15.4477 121.552 15 121 15H29C28.4477 15 28 15.4477 28 16V46.7614C28 47.2004 28.2863 47.5881 28.7059 47.7172L33.7941 49.2828C34.2137 49.4119 34.5021 49.7979 34.5389 50.2354C34.7149 52.3262 35.4482 56.8267 35.9045 59.4543C35.9635 59.7942 35.8442 60.1402 35.5878 60.371L31.6195 63.9424C31.2607 64.2654 31.1838 64.7987 31.4368 65.2098L38.5377 76.7487C38.8018 77.178 39.3442 77.3435 39.8031 77.1349L43.8159 75.3109C44.2212 75.1267 44.6975 75.234 45.0008 75.5598C47.1596 77.8783 50.2085 80.0527 51.942 81.1546C52.2787 81.3686 52.4659 81.7561 52.4131 82.1515L51.6035 88.2235C51.5427 88.6795 51.8009 89.1182 52.2291 89.2864L64.7212 94.194C65.1719 94.3711 65.6847 94.1998 65.9385 93.7874L69.2071 88.4759C69.3891 88.1802 69.7095 88 70.0567 88H78.9044C79.2722 88 79.6088 88.202 79.7832 88.5259L82.5844 93.7282C82.8223 94.1699 83.3505 94.367 83.8196 94.1891L96.7432 89.2871C97.1845 89.1197 97.4487 88.6665 97.3769 88.2L96.6208 83.2854C96.5501 82.8256 96.8058 82.3787 97.2084 82.1456C99.1858 81.0005 102.298 78.1586 104.062 76.4333C104.332 76.1684 104.727 76.0757 105.086 76.1954L109.748 77.7492C110.188 77.8961 110.672 77.7202 110.916 77.3247L118.063 65.7098C118.316 65.2987 118.239 64.7654 117.88 64.4424L114.066 61.0094C113.732 60.7085 113.643 60.2229 113.798 59.8003C114.661 57.436 114.947 53.4646 114.993 51.1579C115.001 50.758 115.238 50.3978 115.606 50.2402L121.394 47.7598C121.762 47.6022 122 47.2406 122 46.8406Z" fill="url(#paint1_linear)" stroke="#09233D" stroke-width="3"/>
<path d="M14.5 15V85.5" stroke="#09233D" stroke-width="3"/>
<path d="M14.5 110V180.5" stroke="#09233D" stroke-width="3"/>
<path d="M135 110V180.5" stroke="#09233D" stroke-width="3"/>
<path d="M135 15V85.5" stroke="#09233D" stroke-width="3"/>
<circle cx="75" cy="48" r="24.5" fill="url(#paint2_radial)" stroke="#09233D" stroke-width="3"/>
<circle cx="75" cy="149" r="24.5" fill="url(#paint3_radial)" stroke="#09233D" stroke-width="3"/>
<path d="M74.814 28C75.4305 28 75.9302 28.5345 75.9302 29.1939V35.1633H81.8837C82.5002 35.1633 83 35.6978 83 36.3571C83 37.0165 82.5002 37.551 81.8837 37.551H73C72.3881 37.6106 71.4379 37.9145 70.6543 38.6288C69.895 39.3209 69.2326 40.4482 69.2326 42.3265C69.2326 44.202 69.8907 45.2402 70.6142 45.8402C71.3892 46.4828 72.3435 46.7041 72.9535 46.7041H77.0894L77.1321 46.7076C78.1346 46.7901 79.5788 47.2448 80.7939 48.3523C82.0501 49.4974 83 51.2885 83 53.8673C83 55.9014 81.976 57.5897 80.8269 58.7242C80.2446 59.2991 79.5994 59.7645 78.9685 60.0908C78.3539 60.4086 77.6784 60.6327 77.0465 60.6327H75.9302V65.8061C75.9302 66.4655 75.4305 67 74.814 67C74.1974 67 73.6977 66.4655 73.6977 65.8061V60.6327H68.1163C67.4998 60.6327 67 60.0981 67 59.4388C67 58.7794 67.4998 58.2449 68.1163 58.2449H77.0465C77.2208 58.2449 77.553 58.1705 77.9966 57.9411C78.4238 57.7202 78.8872 57.3897 79.3126 56.9697C80.179 56.1143 80.7674 55.0169 80.7674 53.8673C80.7674 51.989 80.105 50.8617 79.3457 50.1696C78.5621 49.4553 77.6119 49.1514 77 49.0918H72.9535C71.9511 49.0918 70.4868 48.7559 69.2462 47.7272C67.9542 46.6557 67 44.9082 67 42.3265C67 39.7477 67.9499 37.9566 69.2061 36.8115C70.4212 35.7039 71.8654 35.2493 72.8679 35.1668L72.9106 35.1633H73.6977V29.1939C73.6977 28.5345 74.1974 28 74.814 28Z" fill="white"/>
<path d="M74.814 129C75.4305 129 75.9302 129.535 75.9302 130.194V136.163H81.8837C82.5002 136.163 83 136.698 83 137.357C83 138.017 82.5002 138.551 81.8837 138.551H73C72.3881 138.611 71.4379 138.915 70.6543 139.629C69.895 140.321 69.2326 141.448 69.2326 143.327C69.2326 145.202 69.8907 146.24 70.6142 146.84C71.3892 147.483 72.3435 147.704 72.9535 147.704H77.0894L77.1321 147.708C78.1346 147.79 79.5788 148.245 80.7939 149.352C82.0501 150.497 83 152.289 83 154.867C83 156.901 81.976 158.59 80.8269 159.724C80.2446 160.299 79.5994 160.764 78.9685 161.091C78.3539 161.409 77.6784 161.633 77.0465 161.633H75.9302V166.806C75.9302 167.465 75.4305 168 74.814 168C74.1974 168 73.6977 167.465 73.6977 166.806V161.633H68.1163C67.4998 161.633 67 161.098 67 160.439C67 159.779 67.4998 159.245 68.1163 159.245H77.0465C77.2208 159.245 77.553 159.171 77.9966 158.941C78.4238 158.72 78.8872 158.39 79.3126 157.97C80.179 157.114 80.7674 156.017 80.7674 154.867C80.7674 152.989 80.105 151.862 79.3457 151.17C78.5621 150.455 77.6119 150.151 77 150.092H72.9535C71.9511 150.092 70.4868 149.756 69.2462 148.727C67.9542 147.656 67 145.908 67 143.327C67 140.748 67.9499 138.957 69.2061 137.812C70.4212 136.704 71.8654 136.249 72.8679 136.167L72.9106 136.163H73.6977V130.194C73.6977 129.535 74.1974 129 74.814 129Z" fill="white"/>
<circle cx="14" cy="98" r="12.5" fill="url(#paint4_radial)" stroke="#09233D" stroke-width="3"/>
<circle cx="135" cy="98" r="12.5" fill="url(#paint5_radial)" stroke="#09233D" stroke-width="3"/>
<rect x="8.5" y="1.5" width="134" height="14" rx="5.5" fill="url(#paint6_linear)" stroke="#09233D" stroke-width="3"/>
<rect x="8.5" y="180.5" width="134" height="14" rx="5.5" fill="url(#paint7_linear)" stroke="#09233D" stroke-width="3"/>
<defs>
<linearGradient id="paint0_linear" x1="28" y1="140.316" x2="122" y2="140.316" gradientUnits="userSpaceOnUse">
<stop stop-color="#A9C6FF"/>
<stop offset="1" stop-color="#739AFF"/>
<stop offset="1" stop-color="#1C46B3"/>
</linearGradient>
<linearGradient id="paint1_linear" x1="122" y1="55.7078" x2="28" y2="55.7078" gradientUnits="userSpaceOnUse">
<stop stop-color="#A9C6FF"/>
<stop offset="1" stop-color="#739AFF"/>
<stop offset="1" stop-color="#1C46B3"/>
</linearGradient>
<radialGradient id="paint2_radial" cx="0" cy="0" r="1" gradientUnits="userSpaceOnUse" gradientTransform="translate(75 40.6269) rotate(90) scale(40.6687)">
<stop stop-color="#759FFF"/>
<stop offset="1" stop-color="#0D25A5"/>
</radialGradient>
<radialGradient id="paint3_radial" cx="0" cy="0" r="1" gradientUnits="userSpaceOnUse" gradientTransform="translate(75 141.627) rotate(90) scale(40.6687)">
<stop stop-color="#759FFF"/>
<stop offset="1" stop-color="#0D25A5"/>
</radialGradient>
<radialGradient id="paint4_radial" cx="0" cy="0" r="1" gradientUnits="userSpaceOnUse" gradientTransform="translate(14 94.0299) rotate(90) scale(21.8985)">
<stop stop-color="#759FFF"/>
<stop offset="1" stop-color="#0D25A5"/>
</radialGradient>
<radialGradient id="paint5_radial" cx="0" cy="0" r="1" gradientUnits="userSpaceOnUse" gradientTransform="translate(135 94.0299) rotate(90) scale(21.8985)">
<stop stop-color="#759FFF"/>
<stop offset="1" stop-color="#0D25A5"/>
</radialGradient>
<linearGradient id="paint6_linear" x1="7" y1="8.29518" x2="144" y2="8.2952" gradientUnits="userSpaceOnUse">
<stop stop-color="#4081FF"/>
<stop offset="1" stop-color="#011091"/>
</linearGradient>
<linearGradient id="paint7_linear" x1="7" y1="187.295" x2="144" y2="187.295" gradientUnits="userSpaceOnUse">
<stop stop-color="#4081FF"/>
<stop offset="1" stop-color="#011091"/>
</linearGradient>
</defs>
</svg>
