<svg width="175" height="196" viewBox="0 0 175 196" fill="none" xmlns="http://www.w3.org/2000/svg">
<mask id="path-1-inside-1" fill="white">
<rect x="0.712891" y="117.211" width="23.6367" height="78.7891" rx="2"/>
</mask>
<rect x="0.712891" y="117.211" width="23.6367" height="78.7891" rx="2" fill="url(#paint0_linear)" stroke="#09233D" stroke-width="6" mask="url(#path-1-inside-1)"/>
<path d="M106.588 125.676C89.9888 125.676 76.4784 132.956 71.798 136.596C75.5428 139.217 84.5904 139.873 88.6461 139.873C95.8225 139.613 111.766 139.249 118.132 139.873C124.497 140.497 125.776 145.645 125.62 148.141L145.433 139.093C144.497 136.285 127.336 125.676 106.588 125.676Z" fill="url(#paint1_linear)" stroke="black"/>
<path d="M22.8947 123.635H32.1374C34.6226 123.635 36.6374 125.65 36.6374 128.135V184.091C36.6374 186.576 34.6226 188.591 32.1374 188.591H22.8947V123.635Z" fill="url(#paint2_linear)" stroke="#09233D" stroke-width="3"/>
<line x1="106.609" y1="56.6645" x2="106.609" y2="125.56" stroke="#09233D" stroke-width="3" stroke-linecap="round"/>
<circle cx="75.0698" cy="93.0815" r="18.6897" fill="url(#paint3_radial)" stroke="#09233D" stroke-width="3"/>
<circle cx="137.117" cy="93.0815" r="18.6897" fill="url(#paint4_radial)" stroke="#09233D" stroke-width="3"/>
<line x1="92.0642" y1="104.09" x2="105.852" y2="111.969" stroke="#09233D" stroke-width="3"/>
<line y1="-1.5" x2="15.8804" y2="-1.5" transform="matrix(-0.868243 0.496139 0.496139 0.868243 121.851 105.393)" stroke="#09233D" stroke-width="3"/>
<path d="M107.583 46.8799C106.784 47.7395 105.407 47.7383 104.609 46.8774C98.1292 39.8867 93.8119 34.7168 93.8119 26.111C93.8119 17.0651 99.0296 9.01526 105.252 3.93882C105.789 3.50054 106.517 3.50079 107.024 3.89472C113.153 8.6493 118.373 17.0568 118.373 26.111C118.373 34.7869 114.359 39.5947 107.583 46.8799Z" fill="url(#paint5_linear)" stroke="#09233D" stroke-width="4"/>
<line x1="106.608" y1="23.1791" x2="106.608" y2="45.7856" stroke="#09233D" stroke-width="3" stroke-linecap="round"/>
<path d="M115.019 63.4816C113.874 63.2255 113.18 62.0364 113.52 60.9129C116.282 51.79 118.565 45.453 125.993 41.1079C133.801 36.5406 143.384 36.98 150.908 39.7878C151.557 40.0302 151.924 40.6583 151.841 41.2955C150.831 48.9859 146.21 57.7368 138.394 62.3084C130.905 66.6889 124.729 65.6518 115.019 63.4816Z" fill="url(#paint6_linear)" stroke="#09233D" stroke-width="4"/>
<line x1="135.6" y1="50.32" x2="116.023" y2="61.6233" stroke="#09233D" stroke-width="3" stroke-linecap="round"/>
<path d="M36.66 133.954H55.3724C58.1629 133.954 65.7135 134.643 73.5924 137.401C81.4713 140.158 89.3502 140.191 92.3048 139.863H117.419C120.209 140.355 125.692 142.818 125.298 148.727C124.904 154.636 119.881 156.441 117.419 156.606H86.3956C84.0976 156.606 78.3197 157.689 73.5924 162.022" stroke="#09233D" stroke-width="3" stroke-linecap="round"/>
<path d="M36.6594 176.797L79.0085 186.645C83.1121 187.794 92.4026 190.092 96.736 190.092C101.069 190.092 104.779 188.451 106.585 187.63L170.108 145.772C171.422 143.966 174.048 140.749 172.078 136.416C169.616 130.999 164.199 131.491 160.752 132.97C158.192 134.068 136.623 143.311 126.282 147.743" stroke="#09233D" stroke-width="3"/>
<path fill-rule="evenodd" clip-rule="evenodd" d="M173.443 135.795C172 132.621 169.607 131.082 167.045 130.63C164.574 130.194 162.054 130.779 160.16 131.592C158.436 132.332 148.082 136.769 138.347 140.941L126.575 145.986C126.086 143.904 124.91 142.296 123.521 141.119C121.606 139.496 119.276 138.667 117.678 138.386L117.549 138.363H117.418H92.3036H92.2205L92.1379 138.372C89.3652 138.68 81.7176 138.656 74.0867 135.985C66.0314 133.165 58.3113 132.454 55.3712 132.454H36.6588C35.8304 132.454 35.1588 133.125 35.1588 133.954C35.1588 134.782 35.8304 135.454 36.6588 135.454H55.3712C58.0121 135.454 65.3931 136.12 73.0957 138.816C81.1506 141.636 89.189 141.701 92.3847 141.363H117.28C118.472 141.595 120.204 142.24 121.581 143.408C122.957 144.573 123.96 146.229 123.8 148.627C123.634 151.11 122.524 152.651 121.232 153.621C119.909 154.614 118.356 155.03 117.364 155.105H86.3944C83.7983 155.105 77.6337 156.282 72.5776 160.916C71.9669 161.476 71.9257 162.425 72.4855 163.036C73.0452 163.646 73.9941 163.688 74.6048 163.128C79.0034 159.096 84.3945 158.105 86.3944 158.105H117.418H117.468L117.517 158.102C118.99 158.004 121.152 157.432 123.033 156.02C124.948 154.582 126.535 152.295 126.786 148.922L126.872 149.122L139.568 143.681C149.292 139.514 159.62 135.088 161.343 134.349C162.897 133.682 164.808 133.282 166.523 133.584C168.147 133.871 169.693 134.794 170.712 137.037C172.214 140.34 170.442 142.77 169.056 144.669L105.857 186.313C104.04 187.136 100.643 188.592 96.7355 188.592C94.745 188.592 91.4803 188.052 88.0975 187.332C84.7561 186.622 81.4387 185.768 79.4124 185.201L79.3802 185.192L79.3477 185.184L36.9986 175.336L36.319 178.258L78.6358 188.099C80.7157 188.68 84.0781 189.545 87.4736 190.267C90.8453 190.984 94.3926 191.592 96.7355 191.592C101.417 191.592 105.382 189.824 107.205 188.996L107.312 188.947L107.409 188.883L170.933 147.024L171.161 146.874L171.321 146.654C171.388 146.562 171.461 146.464 171.538 146.358C172.885 144.538 175.692 140.743 173.443 135.795Z" fill="#09233D"/>
<path d="M96.1846 63.4816C97.3302 63.2255 98.0244 62.0364 97.6843 60.9129C94.9218 51.79 92.6391 45.453 85.2109 41.1079C77.4026 36.5406 67.8197 36.98 60.2962 39.7878C59.6467 40.0302 59.2796 40.6583 59.3632 41.2955C60.373 48.9859 64.9944 57.7368 72.8098 62.3084C80.2986 66.6889 86.4752 65.6518 96.1846 63.4816Z" fill="url(#paint7_linear)" stroke="#09233D" stroke-width="4"/>
<line x1="1.5" y1="-1.5" x2="24.1065" y2="-1.5" transform="matrix(0.866025 0.5 0.5 -0.866025 76.5465 48.271)" stroke="#09233D" stroke-width="3" stroke-linecap="round"/>
<path d="M71.1301 136.415C82.2609 129.248 92.3617 126.074 106.585 126.074C122.438 126.074 133.639 130.136 145.487 138.878" stroke="#09233D" stroke-width="3" stroke-linecap="round"/>
<path d="M75.448 80.7708C75.8275 80.7708 76.1352 81.1083 76.1352 81.5246V85.2932H79.7998C80.1792 85.2932 80.4869 85.6306 80.4869 86.0469C80.4869 86.4632 80.1792 86.8006 79.7998 86.8006H74.3315C73.9548 86.8382 73.3699 87.0301 72.8876 87.481C72.4203 87.918 72.0125 88.6297 72.0125 89.8155C72.0125 90.9995 72.4176 91.655 72.863 92.0338C73.34 92.4395 73.9274 92.5792 74.3029 92.5792H76.8487L76.875 92.5814C77.492 92.6334 78.381 92.9205 79.1289 93.6197C79.9022 94.3427 80.4869 95.4734 80.4869 97.1015C80.4869 98.3856 79.8566 99.4515 79.1493 100.168C78.7908 100.531 78.3937 100.824 78.0053 101.03C77.627 101.231 77.2112 101.373 76.8223 101.373H76.1352V104.639C76.1352 105.055 75.8275 105.392 75.448 105.392C75.0686 105.392 74.7609 105.055 74.7609 104.639V101.373H71.3254C70.9459 101.373 70.6382 101.035 70.6382 100.619C70.6382 100.203 70.9459 99.8651 71.3254 99.8651H76.8223C76.9295 99.8651 77.1341 99.8182 77.4071 99.6733C77.6701 99.5339 77.9553 99.3252 78.2171 99.0601C78.7504 98.5201 79.1127 97.8273 79.1127 97.1015C79.1127 95.9156 78.7049 95.204 78.2375 94.767C77.7552 94.3161 77.1703 94.1242 76.7937 94.0866H74.3029C73.6858 94.0866 72.7845 93.8745 72.0209 93.225C71.2256 92.5486 70.6382 91.4454 70.6382 89.8155C70.6382 88.1875 71.223 87.0567 71.9962 86.3338C72.7441 85.6345 73.6331 85.3475 74.2502 85.2954L74.2765 85.2932H74.7609V81.5246C74.7609 81.1083 75.0686 80.7708 75.448 80.7708Z" fill="white"/>
<path d="M136.51 80.7708C136.889 80.7708 137.197 81.1083 137.197 81.5246V85.2932H140.862C141.241 85.2932 141.549 85.6306 141.549 86.0469C141.549 86.4632 141.241 86.8006 140.862 86.8006H135.393C135.017 86.8382 134.432 87.0301 133.949 87.481C133.482 87.918 133.074 88.6297 133.074 89.8155C133.074 90.9995 133.479 91.655 133.925 92.0338C134.402 92.4395 134.989 92.5792 135.365 92.5792H137.91L137.937 92.5814C138.554 92.6334 139.443 92.9205 140.191 93.6197C140.964 94.3427 141.549 95.4734 141.549 97.1015C141.549 98.3856 140.918 99.4515 140.211 100.168C139.853 100.531 139.455 100.824 139.067 101.03C138.689 101.231 138.273 101.373 137.884 101.373H137.197V104.639C137.197 105.055 136.889 105.392 136.51 105.392C136.13 105.392 135.823 105.055 135.823 104.639V101.373H132.387C132.008 101.373 131.7 101.035 131.7 100.619C131.7 100.203 132.008 99.8651 132.387 99.8651H137.884C137.991 99.8651 138.196 99.8182 138.469 99.6733C138.732 99.5339 139.017 99.3252 139.279 99.0601C139.812 98.5201 140.174 97.8273 140.174 97.1015C140.174 95.9156 139.767 95.204 139.299 94.767C138.817 94.3161 138.232 94.1242 137.855 94.0866H135.365C134.748 94.0866 133.846 93.8745 133.083 93.225C132.287 92.5486 131.7 91.4454 131.7 89.8155C131.7 88.1875 132.285 87.0567 133.058 86.3338C133.806 85.6345 134.695 85.3475 135.312 85.2954L135.338 85.2932H135.823V81.5246C135.823 81.1083 136.13 80.7708 136.51 80.7708Z" fill="white"/>
<defs>
<linearGradient id="paint0_linear" x1="0.712891" y1="155.656" x2="24.3496" y2="155.656" gradientUnits="userSpaceOnUse">
<stop stop-color="#A9C6FF"/>
<stop offset="1" stop-color="#739AFF"/>
<stop offset="1" stop-color="#1C46B3"/>
</linearGradient>
<linearGradient id="paint1_linear" x1="71.798" y1="136.638" x2="145.433" y2="136.638" gradientUnits="userSpaceOnUse">
<stop stop-color="#A9C6FF"/>
<stop offset="1" stop-color="#739AFF"/>
<stop offset="1" stop-color="#1C46B3"/>
</linearGradient>
<linearGradient id="paint2_linear" x1="21.3947" y1="155.294" x2="38.1374" y2="155.294" gradientUnits="userSpaceOnUse">
<stop stop-color="#C7C7C7"/>
<stop offset="1" stop-color="#EAEAEA"/>
</linearGradient>
<radialGradient id="paint3_radial" cx="0" cy="0" r="1" gradientUnits="userSpaceOnUse" gradientTransform="translate(75.0698 87.356) rotate(90) scale(31.5803)">
<stop stop-color="#759FFF"/>
<stop offset="1" stop-color="#0D25A5"/>
</radialGradient>
<radialGradient id="paint4_radial" cx="0" cy="0" r="1" gradientUnits="userSpaceOnUse" gradientTransform="translate(137.117 87.356) rotate(90) scale(31.5803)">
<stop stop-color="#759FFF"/>
<stop offset="1" stop-color="#0D25A5"/>
</radialGradient>
<linearGradient id="paint5_linear" x1="91.8119" y1="25.5012" x2="120.373" y2="25.5012" gradientUnits="userSpaceOnUse">
<stop stop-color="#A9C6FF"/>
<stop offset="1" stop-color="#739AFF"/>
<stop offset="1" stop-color="#1C46B3"/>
</linearGradient>
<linearGradient id="paint6_linear" x1="125.51" y1="39.0737" x2="139.93" y2="63.7268" gradientUnits="userSpaceOnUse">
<stop stop-color="#A9C6FF"/>
<stop offset="1" stop-color="#739AFF"/>
<stop offset="1" stop-color="#1C46B3"/>
</linearGradient>
<linearGradient id="paint7_linear" x1="85.6943" y1="39.0737" x2="71.2736" y2="63.7268" gradientUnits="userSpaceOnUse">
<stop stop-color="#A9C6FF"/>
<stop offset="1" stop-color="#739AFF"/>
<stop offset="1" stop-color="#1C46B3"/>
</linearGradient>
</defs>
</svg>
