<svg width="201" height="173" viewBox="0 0 201 173" fill="none" xmlns="http://www.w3.org/2000/svg">
<line x1="3.29166" y1="171.417" x2="198.208" y2="171.417" stroke="#09233D" stroke-width="3" stroke-linecap="round"/>
<mask id="path-2-inside-1" fill="white">
<rect x="1.79166" y="75" width="29.1667" height="86.4583" rx="2"/>
</mask>
<rect x="1.79166" y="75" width="29.1667" height="86.4583" rx="2" fill="url(#paint0_linear)" stroke="#09233D" stroke-width="6" mask="url(#path-2-inside-1)"/>
<mask id="path-3-inside-2" fill="white">
<rect x="43.4583" y="96.875" width="29.1667" height="64.5833" rx="2"/>
</mask>
<rect x="43.4583" y="96.875" width="29.1667" height="64.5833" rx="2" fill="url(#paint1_linear)" stroke="#09233D" stroke-width="6" mask="url(#path-3-inside-2)"/>
<mask id="path-4-inside-3" fill="white">
<rect x="86.1667" y="53.125" width="29.1667" height="108.333" rx="2"/>
</mask>
<rect x="86.1667" y="53.125" width="29.1667" height="108.333" rx="2" fill="url(#paint2_linear)" stroke="#09233D" stroke-width="6" mask="url(#path-4-inside-3)"/>
<mask id="path-5-inside-4" fill="white">
<rect x="128.875" y="66.6667" width="29.1667" height="94.7917" rx="2"/>
</mask>
<rect x="128.875" y="66.6667" width="29.1667" height="94.7917" rx="2" fill="url(#paint3_linear)" stroke="#09233D" stroke-width="6" mask="url(#path-5-inside-4)"/>
<mask id="path-6-inside-5" fill="white">
<rect x="171.583" y="36.4583" width="29.1667" height="125" rx="2"/>
</mask>
<rect x="171.583" y="36.4583" width="29.1667" height="125" rx="2" fill="url(#paint4_linear)" stroke="#09233D" stroke-width="6" mask="url(#path-6-inside-5)"/>
<circle cx="15.3333" cy="52.0833" r="13.0833" fill="url(#paint5_linear)" stroke="#09233D" stroke-width="3"/>
<circle cx="100.75" cy="31.25" r="13.0833" fill="url(#paint6_linear)" stroke="#09233D" stroke-width="3"/>
<circle cx="143.458" cy="44.7917" r="13.0833" fill="url(#paint7_linear)" stroke="#09233D" stroke-width="3"/>
<circle cx="186.167" cy="14.5833" r="13.0833" fill="url(#paint8_linear)" stroke="#09233D" stroke-width="3"/>
<circle cx="58.0417" cy="73.9583" r="13.0833" fill="url(#paint9_linear)" stroke="#09233D" stroke-width="3"/>
<line x1="27.5417" y1="58.076" x2="46.5717" y2="69.063" stroke="#09233D" stroke-width="3"/>
<line x1="112.68" y1="35.0344" x2="132.278" y2="41.5245" stroke="#09233D" stroke-width="3"/>
<line x1="68.4393" y1="64.4768" x2="92.3977" y2="40.5185" stroke="#09233D" stroke-width="3"/>
<line x1="154.045" y1="37.3211" x2="175.92" y2="21.6961" stroke="#09233D" stroke-width="3"/>
<defs>
<linearGradient id="paint0_linear" x1="1.79166" y1="117.188" x2="30.9583" y2="117.188" gradientUnits="userSpaceOnUse">
<stop stop-color="#4081FF"/>
<stop offset="1" stop-color="#011091"/>
</linearGradient>
<linearGradient id="paint1_linear" x1="43.4583" y1="128.389" x2="72.625" y2="128.389" gradientUnits="userSpaceOnUse">
<stop stop-color="#94B1E9"/>
<stop offset="1" stop-color="#739AFF"/>
</linearGradient>
<linearGradient id="paint2_linear" x1="86.1667" y1="105.986" x2="115.333" y2="105.986" gradientUnits="userSpaceOnUse">
<stop stop-color="#4081FF"/>
<stop offset="1" stop-color="#011091"/>
</linearGradient>
<linearGradient id="paint3_linear" x1="128.875" y1="112.92" x2="158.042" y2="112.92" gradientUnits="userSpaceOnUse">
<stop stop-color="#A9C6FF"/>
<stop offset="1" stop-color="#739AFF"/>
<stop offset="1" stop-color="#1C46B3"/>
</linearGradient>
<linearGradient id="paint4_linear" x1="171.583" y1="97.4523" x2="200.75" y2="97.4523" gradientUnits="userSpaceOnUse">
<stop stop-color="#4081FF"/>
<stop offset="1" stop-color="#011091"/>
</linearGradient>
<linearGradient id="paint5_linear" x1="0.75" y1="51.7319" x2="29.9167" y2="51.7319" gradientUnits="userSpaceOnUse">
<stop stop-color="#4081FF"/>
<stop offset="1" stop-color="#011091"/>
</linearGradient>
<linearGradient id="paint6_linear" x1="86.1667" y1="30.8986" x2="115.333" y2="30.8986" gradientUnits="userSpaceOnUse">
<stop stop-color="#4081FF"/>
<stop offset="1" stop-color="#011091"/>
</linearGradient>
<linearGradient id="paint7_linear" x1="128.875" y1="44.4403" x2="158.042" y2="44.4403" gradientUnits="userSpaceOnUse">
<stop stop-color="#A9C6FF"/>
<stop offset="1" stop-color="#739AFF"/>
<stop offset="1" stop-color="#1C46B3"/>
</linearGradient>
<linearGradient id="paint8_linear" x1="171.583" y1="14.2319" x2="200.75" y2="14.2319" gradientUnits="userSpaceOnUse">
<stop stop-color="#4081FF"/>
<stop offset="1" stop-color="#011091"/>
</linearGradient>
<linearGradient id="paint9_linear" x1="43.4583" y1="73.6069" x2="72.625" y2="73.6069" gradientUnits="userSpaceOnUse">
<stop stop-color="#94B1E9"/>
<stop offset="1" stop-color="#739AFF"/>
</linearGradient>
</defs>
</svg>
