<svg width="19" height="28" viewBox="0 0 19 28" fill="none" xmlns="http://www.w3.org/2000/svg">
<path d="M7.8 0.666016L5.57333 3.99935L7.09333 4.99935L2.85333 11.3327C2.8 11.3327 2.73333 11.3327 2.66667 11.3327C1.95942 11.3327 1.28115 11.6136 0.781048 12.1137C0.280951 12.6138 0 13.2921 0 13.9993C0 15.2527 0.88 16.3327 2.10667 16.5993L7.49333 24.666H2.66667V27.3327H16V24.666H10.6667L4.70667 15.706C5.10667 15.226 5.33333 14.626 5.33333 13.9993C5.33333 13.5993 5.24 13.1993 5.06667 12.8393L9.33333 6.49268C9.04 8.73268 10.3333 11.186 12.6 12.666L18.52 3.82602C16.2667 2.31935 13.4933 2.05268 11.5333 3.15935L7.8 0.666016ZM17.7733 7.33268L15.56 10.666C16.4667 11.266 17.72 11.026 18.3333 10.106C18.9467 9.18602 18.6667 7.94602 17.7733 7.33268Z" fill="white"/>
</svg>
