<svg width="32" height="32" viewBox="0 0 32 32" fill="none" xmlns="http://www.w3.org/2000/svg">
<path d="M16.0001 28.72C15.6046 28.7209 15.2128 28.6437 14.8472 28.4927C14.4817 28.3416 14.1496 28.1198 13.8701 27.84L3.57011 17.54C2.75645 16.7175 2.1146 15.7413 1.68195 14.6682C1.24931 13.5952 1.03452 12.4468 1.05011 11.29C1.05795 10.2298 1.27487 9.1816 1.68844 8.20541C2.10201 7.22921 2.70411 6.3442 3.46026 5.60106C4.2164 4.85792 5.11172 4.27127 6.09494 3.87469C7.07817 3.47811 8.12997 3.27941 9.19011 3.28996C10.2692 3.27909 11.3395 3.48504 12.3376 3.89558C13.3356 4.30613 14.241 4.91292 15.0001 5.67996L16.0001 6.67996L16.8201 5.85996C18.236 4.40653 20.1307 3.51547 22.1532 3.35183C24.1757 3.1882 26.189 3.76306 27.8201 4.96996C28.7486 5.68501 29.5142 6.58968 30.0657 7.62372C30.6172 8.65776 30.9421 9.79745 31.0188 10.9669C31.0954 12.1363 30.922 13.3087 30.5102 14.4058C30.0983 15.503 29.4574 16.4998 28.6301 17.33L18.1301 27.84C17.8506 28.1198 17.5185 28.3416 17.153 28.4927C16.7874 28.6437 16.3956 28.7209 16.0001 28.72ZM9.15011 5.27996C7.56063 5.27834 6.03287 5.89518 4.89011 6.99996C4.3075 7.5605 3.8442 8.23301 3.528 8.97709C3.21181 9.72117 3.04926 10.5215 3.05011 11.33C3.04134 12.2193 3.20919 13.1015 3.54393 13.9254C3.87866 14.7494 4.37362 15.4987 5.00011 16.13L15.3001 26.43C15.3931 26.5237 15.5037 26.5981 15.6255 26.6489C15.7474 26.6996 15.8781 26.7258 16.0101 26.7258C16.1421 26.7258 16.2728 26.6996 16.3947 26.6489C16.5165 26.5981 16.6271 26.5237 16.7201 26.43L27.2301 15.91C27.847 15.28 28.3237 14.5266 28.6287 13.6994C28.9338 12.8721 29.0604 11.9896 29.0001 11.11C28.9467 10.2213 28.7019 9.35462 28.2825 8.56931C27.8631 7.784 27.279 7.09858 26.5701 6.55996C25.3262 5.64285 23.7914 5.20922 22.2515 5.33984C20.7116 5.47046 19.2717 6.15644 18.2001 7.26996L16.7101 8.79996C16.6171 8.89369 16.5065 8.96808 16.3847 9.01885C16.2628 9.06962 16.1321 9.09576 16.0001 9.09576C15.8681 9.09576 15.7374 9.06962 15.6155 9.01885C15.4937 8.96808 15.3831 8.89369 15.2901 8.79996L13.5901 7.09996C12.4192 5.93924 10.8388 5.28553 9.19011 5.27996H9.15011Z" fill="white"/>
</svg>
