<svg width="141" height="34" viewBox="0 0 141 34" fill="none" xmlns="http://www.w3.org/2000/svg">
<path d="M15.3708 2.83325L13.005 6.37492L14.62 7.43742L10.115 14.1666C10.0583 14.1666 9.98748 14.1666 9.91665 14.1666C9.1652 14.1666 8.44453 14.4651 7.91318 14.9965C7.38182 15.5278 7.08331 16.2485 7.08331 16.9999C7.08331 18.3316 8.01831 19.4791 9.32165 19.7624L15.045 28.3333H9.91665V31.1666H24.0833V28.3333H18.4166L12.0841 18.8133C12.5091 18.3033 12.75 17.6658 12.75 16.9999C12.75 16.5749 12.6508 16.1499 12.4666 15.7674L17 9.02409C16.6883 11.4041 18.0625 14.0108 20.4708 15.5833L26.7608 6.19075C24.3666 4.58992 21.42 4.30659 19.3375 5.48242L15.3708 2.83325ZM25.9675 9.91659L23.6158 13.4583C24.5791 14.0958 25.9108 13.8408 26.5625 12.8633C27.2141 11.8858 26.9166 10.5683 25.9675 9.91659Z" fill="white"/>
<path d="M39.234 16H42.672L43.356 13.606H47.622L48.306 16H52.212L48.126 3.13H43.356L39.234 16ZM45.498 6.118L46.902 11.068H44.076L45.498 6.118ZM57.3973 13.156V5.974H58.2073C60.4393 5.974 61.4113 7.018 61.4113 9.466V9.61C61.4113 12.004 60.4393 13.156 58.2433 13.156H57.3973ZM53.6893 16H58.3513C62.8873 16 65.2633 13.57 65.2633 9.556V9.412C65.2633 5.416 62.9413 3.13 58.3693 3.13H53.6893V16ZM67.6796 16.198C68.7596 16.198 69.5696 15.388 69.5696 14.38C69.5696 13.372 68.7596 12.562 67.6796 12.562C66.6176 12.562 65.8436 13.372 65.8436 14.38C65.8436 15.388 66.6176 16.198 67.6796 16.198ZM73.9945 16.216C75.5065 16.216 76.3345 15.586 76.7845 14.902V16H79.9165V9.898C79.9165 7.396 78.2605 6.334 75.6685 6.334C73.0945 6.334 71.3125 7.45 71.1685 9.718H74.1925C74.2645 9.124 74.5885 8.602 75.4705 8.602C76.4965 8.602 76.7125 9.196 76.7125 10.096V10.312H75.8125C72.6805 10.312 70.8085 11.176 70.8085 13.39C70.8085 15.388 72.3025 16.216 73.9945 16.216ZM75.1105 14.038C74.3545 14.038 73.9945 13.696 73.9945 13.156C73.9945 12.382 74.5705 12.13 75.8665 12.13H76.7125V12.706C76.7125 13.516 76.0285 14.038 75.1105 14.038ZM82.2408 16H85.4448V8.782H87.3528V6.586H85.4448V5.758C85.4448 5.146 85.7688 4.732 86.5248 4.732C86.8848 4.732 87.1728 4.786 87.4068 4.858V2.5C86.9748 2.392 86.5248 2.302 85.9308 2.302C83.6988 2.302 82.2408 3.418 82.2408 5.758V6.586H81.0528V8.782H82.2408V16Z" fill="white"/>
<path d="M43.044 31.12C42.02 31.12 41.232 30.824 40.68 30.232C40.136 29.632 39.864 28.82 39.864 27.796C39.864 27.06 39.96 26.36 40.152 25.696C40.352 25.032 40.64 24.448 41.016 23.944C41.392 23.432 41.848 23.032 42.384 22.744C42.92 22.448 43.524 22.3 44.196 22.3C45.172 22.3 45.928 22.6 46.464 23.2C47.008 23.8 47.28 24.624 47.28 25.672C47.28 26.416 47.188 27.116 47.004 27.772C46.828 28.428 46.56 29.008 46.2 29.512C45.848 30.008 45.408 30.4 44.88 30.688C44.352 30.976 43.74 31.12 43.044 31.12ZM43.08 30.172C43.56 30.172 43.988 30.052 44.364 29.812C44.74 29.572 45.06 29.244 45.324 28.828C45.588 28.404 45.788 27.92 45.924 27.376C46.068 26.832 46.14 26.256 46.14 25.648C46.14 24.888 45.96 24.3 45.6 23.884C45.24 23.46 44.748 23.248 44.124 23.248C43.644 23.248 43.212 23.368 42.828 23.608C42.444 23.84 42.116 24.164 41.844 24.58C41.572 24.988 41.364 25.468 41.22 26.02C41.076 26.564 41.004 27.148 41.004 27.772C41.004 28.524 41.188 29.112 41.556 29.536C41.924 29.96 42.432 30.172 43.08 30.172ZM50.5284 31.12C49.8004 31.12 49.2364 30.892 48.8364 30.436C48.4364 29.972 48.2364 29.296 48.2364 28.408C48.2364 28.048 48.2684 27.636 48.3324 27.172C48.4044 26.7 48.5124 26.22 48.6564 25.732C48.8084 25.236 49.0004 24.764 49.2324 24.316C49.4724 23.868 49.7604 23.48 50.0964 23.152C50.4404 22.824 50.8404 22.592 51.2964 22.456C51.4404 22.408 51.6484 22.356 51.9204 22.3C52.2004 22.236 52.5044 22.172 52.8324 22.108C53.1604 22.036 53.4724 21.976 53.7684 21.928C54.0644 21.88 54.3004 21.844 54.4764 21.82L54.5964 22.684C54.3724 22.716 54.0844 22.764 53.7324 22.828C53.3804 22.892 53.0244 22.964 52.6644 23.044C52.3124 23.116 52.0124 23.192 51.7644 23.272C51.2524 23.432 50.8164 23.752 50.4564 24.232C50.0964 24.712 49.8124 25.332 49.6044 26.092L49.6404 26.104C49.8564 25.848 50.1484 25.604 50.5164 25.372C50.8844 25.14 51.3044 25.024 51.7764 25.024C52.3844 25.024 52.8364 25.216 53.1324 25.6C53.4364 25.976 53.5884 26.504 53.5884 27.184C53.5884 27.672 53.5284 28.152 53.4084 28.624C53.2964 29.088 53.1164 29.508 52.8684 29.884C52.6284 30.26 52.3124 30.56 51.9204 30.784C51.5364 31.008 51.0724 31.12 50.5284 31.12ZM50.6244 30.244C50.9764 30.244 51.2724 30.148 51.5124 29.956C51.7524 29.756 51.9444 29.504 52.0884 29.2C52.2404 28.888 52.3484 28.564 52.4124 28.228C52.4764 27.884 52.5084 27.572 52.5084 27.292C52.5084 26.812 52.4244 26.46 52.2564 26.236C52.0884 26.012 51.8364 25.9 51.5004 25.9C51.2044 25.9 50.9204 25.972 50.6484 26.116C50.3844 26.26 50.1484 26.432 49.9404 26.632C49.7324 26.824 49.5644 27.008 49.4364 27.184C49.4044 27.4 49.3724 27.616 49.3404 27.832C49.3164 28.048 49.3044 28.252 49.3044 28.444C49.3044 28.98 49.4044 29.416 49.6044 29.752C49.8044 30.08 50.1444 30.244 50.6244 30.244ZM58.0995 31.12C57.4595 31.12 56.9515 30.972 56.5755 30.676C56.1995 30.372 56.0115 29.904 56.0115 29.272C56.0115 29.112 56.0235 28.928 56.0475 28.72C56.0795 28.512 56.1115 28.32 56.1435 28.144L56.7195 25.468H54.6795L54.8715 24.568H57.9675L57.3675 27.364C57.5595 27.324 57.7635 27.292 57.9795 27.268C58.2035 27.236 58.4275 27.22 58.6515 27.22C59.3155 27.22 59.8115 27.368 60.1395 27.664C60.4675 27.96 60.6315 28.38 60.6315 28.924C60.6315 29.316 60.5395 29.68 60.3555 30.016C60.1795 30.344 59.9035 30.612 59.5275 30.82C59.1595 31.02 58.6835 31.12 58.0995 31.12ZM58.1835 30.256C58.6795 30.256 59.0355 30.128 59.2515 29.872C59.4755 29.616 59.5875 29.328 59.5875 29.008C59.5875 28.664 59.4835 28.424 59.2755 28.288C59.0755 28.152 58.7715 28.084 58.3635 28.084C58.1635 28.084 57.9635 28.096 57.7635 28.12C57.5715 28.136 57.3795 28.164 57.1875 28.204C57.1395 28.436 57.1035 28.628 57.0795 28.78C57.0635 28.932 57.0555 29.064 57.0555 29.176C57.0555 29.504 57.1395 29.768 57.3075 29.968C57.4755 30.16 57.7675 30.256 58.1835 30.256ZM61.6348 31.072C61.5308 31.072 61.4388 31.064 61.3588 31.048C61.2708 31.032 61.1988 31.016 61.1428 31V30.16C61.2308 30.184 61.3308 30.196 61.4428 30.196C61.6508 30.196 61.8228 30.128 61.9588 29.992C62.0948 29.848 62.2508 29.592 62.4268 29.224C62.5468 28.968 62.6908 28.74 62.8588 28.54C63.0268 28.34 63.2468 28.188 63.5188 28.084C63.1348 27.972 62.8508 27.784 62.6668 27.52C62.4908 27.256 62.4028 26.952 62.4028 26.608C62.4028 26.024 62.6148 25.54 63.0388 25.156C63.4628 24.764 64.0988 24.568 64.9468 24.568H67.3948L66.0388 31H64.9948L65.5348 28.468H64.7548C64.3788 28.468 64.1028 28.56 63.9268 28.744C63.7508 28.928 63.5708 29.204 63.3868 29.572C63.2348 29.892 63.0828 30.164 62.9308 30.388C62.7868 30.612 62.6148 30.784 62.4148 30.904C62.2148 31.016 61.9548 31.072 61.6348 31.072ZM64.6708 27.568H65.7268L66.1708 25.468H64.7788C64.3548 25.468 64.0268 25.572 63.7948 25.78C63.5628 25.98 63.4468 26.256 63.4468 26.608C63.4468 26.968 63.5628 27.22 63.7948 27.364C64.0348 27.5 64.3268 27.568 64.6708 27.568ZM70.8775 31.12C69.9975 31.12 69.3535 30.88 68.9455 30.4C68.5455 29.912 68.3455 29.268 68.3455 28.468C68.3455 27.716 68.4775 27.04 68.7415 26.44C69.0135 25.832 69.4015 25.352 69.9055 25C70.4175 24.64 71.0335 24.46 71.7535 24.46C72.4415 24.46 72.9735 24.596 73.3495 24.868C73.7255 25.14 73.9135 25.548 73.9135 26.092C73.9135 26.564 73.7615 26.932 73.4575 27.196C73.1535 27.46 72.7655 27.644 72.2935 27.748V27.772C72.6455 27.86 72.9335 28.008 73.1575 28.216C73.3815 28.416 73.4935 28.724 73.4935 29.14C73.4935 29.436 73.4095 29.74 73.2415 30.052C73.0815 30.356 72.8095 30.612 72.4255 30.82C72.0415 31.02 71.5255 31.12 70.8775 31.12ZM70.8415 27.364C71.1935 27.364 71.5215 27.328 71.8255 27.256C72.1375 27.184 72.3855 27.064 72.5695 26.896C72.7615 26.72 72.8575 26.488 72.8575 26.2C72.8575 25.96 72.7735 25.756 72.6055 25.588C72.4375 25.42 72.1575 25.336 71.7655 25.336C71.2055 25.336 70.7295 25.512 70.3375 25.864C69.9535 26.216 69.6855 26.716 69.5335 27.364H70.8415ZM70.9495 30.256C71.4775 30.256 71.8615 30.144 72.1015 29.92C72.3495 29.688 72.4735 29.424 72.4735 29.128C72.4735 28.824 72.3495 28.596 72.1015 28.444C71.8535 28.292 71.4615 28.216 70.9255 28.216H69.4135V28.504C69.4135 29.12 69.5535 29.568 69.8335 29.848C70.1135 30.12 70.4855 30.256 70.9495 30.256ZM74.2257 31.084C74.1217 31.084 74.0257 31.072 73.9377 31.048C73.8497 31.032 73.7817 31.016 73.7337 31V30.088C73.8457 30.136 73.9777 30.16 74.1297 30.16C74.3857 30.16 74.6057 30.076 74.7897 29.908C74.9737 29.74 75.1497 29.472 75.3177 29.104C75.4857 28.736 75.6697 28.252 75.8697 27.652C76.0537 27.116 76.2297 26.652 76.3977 26.26C76.5657 25.868 76.7537 25.544 76.9617 25.288C77.1777 25.024 77.4417 24.828 77.7537 24.7C78.0657 24.572 78.4537 24.508 78.9177 24.508C79.1897 24.508 79.4537 24.528 79.7097 24.568C79.9657 24.6 80.1977 24.648 80.4057 24.712L79.0617 31H77.9937L79.2057 25.444C79.1497 25.428 79.0817 25.416 79.0017 25.408C78.9217 25.4 78.8377 25.396 78.7497 25.396C78.4217 25.396 78.1537 25.476 77.9457 25.636C77.7457 25.788 77.5617 26.052 77.3937 26.428C77.2257 26.804 77.0257 27.332 76.7937 28.012C76.5617 28.668 76.3377 29.228 76.1217 29.692C75.9137 30.148 75.6617 30.496 75.3657 30.736C75.0777 30.968 74.6977 31.084 74.2257 31.084ZM83.6931 31.12C82.9491 31.12 82.3731 30.904 81.9651 30.472C81.5651 30.032 81.3651 29.44 81.3651 28.696C81.3651 28.184 81.4371 27.68 81.5811 27.184C81.7331 26.68 81.9491 26.224 82.2291 25.816C82.5091 25.4 82.8451 25.068 83.2371 24.82C83.6371 24.572 84.0851 24.448 84.5811 24.448C85.1891 24.448 85.6451 24.58 85.9491 24.844C86.2611 25.108 86.4171 25.476 86.4171 25.948C86.4171 26.364 86.2851 26.744 86.0211 27.088C85.7651 27.432 85.3611 27.708 84.8091 27.916C84.2571 28.116 83.5411 28.216 82.6611 28.216H82.4571C82.4491 28.288 82.4411 28.364 82.4331 28.444C82.4331 28.524 82.4331 28.596 82.4331 28.66C82.4331 29.148 82.5531 29.536 82.7931 29.824C83.0331 30.104 83.3971 30.244 83.8851 30.244C84.1891 30.244 84.4771 30.2 84.7491 30.112C85.0211 30.024 85.3171 29.904 85.6371 29.752V30.652C85.3331 30.788 85.0331 30.9 84.7371 30.988C84.4491 31.076 84.1011 31.12 83.6931 31.12ZM82.6971 27.364C83.1771 27.364 83.6211 27.324 84.0291 27.244C84.4371 27.156 84.7651 27.016 85.0131 26.824C85.2611 26.624 85.3851 26.36 85.3851 26.032C85.3851 25.824 85.3131 25.656 85.1691 25.528C85.0331 25.392 84.8171 25.324 84.5211 25.324C84.1371 25.324 83.7651 25.504 83.4051 25.864C83.0531 26.216 82.7891 26.716 82.6131 27.364H82.6971ZM87.1133 31L88.4813 24.568H89.5253L88.9733 27.244H91.9973L92.5733 24.568H93.6293L92.2733 31H91.2053L91.8053 28.12H88.7813L88.1693 31H87.1133ZM96.2524 31.12C95.7644 31.12 95.3724 30.984 95.0764 30.712C94.7884 30.44 94.6444 30.044 94.6444 29.524C94.6444 29.34 94.6564 29.168 94.6804 29.008C94.7124 28.84 94.7444 28.668 94.7764 28.492L95.6164 24.568H96.6844L95.8204 28.612C95.7484 28.956 95.7124 29.224 95.7124 29.416C95.7124 29.672 95.7764 29.876 95.9044 30.028C96.0404 30.172 96.2564 30.244 96.5524 30.244C96.8244 30.244 97.1164 30.148 97.4284 29.956C97.7484 29.764 98.0444 29.456 98.3164 29.032C98.5884 28.608 98.8004 28.044 98.9524 27.34L99.5404 24.568H100.584L99.2164 31H98.3524L98.4844 29.812H98.4244C98.2724 30.004 98.0924 30.204 97.8844 30.412C97.6844 30.612 97.4484 30.78 97.1764 30.916C96.9124 31.052 96.6044 31.12 96.2524 31.12ZM101.186 31.072C101.082 31.072 100.99 31.064 100.91 31.048C100.822 31.032 100.75 31.016 100.694 31V30.16C100.782 30.184 100.882 30.196 100.994 30.196C101.202 30.196 101.374 30.128 101.51 29.992C101.646 29.848 101.802 29.592 101.978 29.224C102.098 28.968 102.242 28.74 102.41 28.54C102.578 28.34 102.798 28.188 103.07 28.084C102.686 27.972 102.402 27.784 102.218 27.52C102.042 27.256 101.954 26.952 101.954 26.608C101.954 26.024 102.166 25.54 102.59 25.156C103.014 24.764 103.65 24.568 104.498 24.568H106.946L105.59 31H104.546L105.086 28.468H104.306C103.93 28.468 103.654 28.56 103.478 28.744C103.302 28.928 103.122 29.204 102.938 29.572C102.786 29.892 102.634 30.164 102.482 30.388C102.338 30.612 102.166 30.784 101.966 30.904C101.766 31.016 101.506 31.072 101.186 31.072ZM104.222 27.568H105.278L105.722 25.468H104.33C103.906 25.468 103.578 25.572 103.346 25.78C103.114 25.98 102.998 26.256 102.998 26.608C102.998 26.968 103.114 27.22 103.346 27.364C103.586 27.5 103.878 27.568 104.222 27.568ZM112.121 31.12C111.777 31.12 111.437 31.08 111.101 31C110.773 30.928 110.497 30.832 110.273 30.712V29.74C110.481 29.852 110.749 29.968 111.077 30.088C111.405 30.2 111.781 30.256 112.205 30.256C112.709 30.256 113.109 30.148 113.405 29.932C113.709 29.708 113.861 29.416 113.861 29.056C113.861 28.776 113.777 28.548 113.609 28.372C113.449 28.196 113.129 28.108 112.649 28.108H111.761L111.965 27.22H112.553C112.817 27.22 113.077 27.192 113.333 27.136C113.597 27.08 113.813 26.972 113.981 26.812C114.149 26.652 114.233 26.42 114.233 26.116C114.233 25.876 114.149 25.688 113.981 25.552C113.821 25.408 113.573 25.336 113.237 25.336C112.957 25.336 112.689 25.372 112.433 25.444C112.177 25.508 111.893 25.608 111.581 25.744L111.269 24.94C111.597 24.78 111.925 24.66 112.253 24.58C112.589 24.492 112.965 24.448 113.381 24.448C113.981 24.448 114.449 24.58 114.785 24.844C115.121 25.108 115.289 25.48 115.289 25.96C115.289 26.392 115.157 26.752 114.893 27.04C114.637 27.32 114.265 27.516 113.777 27.628V27.652C114.121 27.74 114.389 27.896 114.581 28.12C114.773 28.344 114.869 28.644 114.869 29.02C114.869 29.612 114.641 30.112 114.185 30.52C113.737 30.92 113.049 31.12 112.121 31.12ZM118.317 31.12C117.621 31.12 117.093 30.908 116.733 30.484C116.373 30.052 116.193 29.484 116.193 28.78C116.193 28.324 116.257 27.864 116.385 27.4C116.513 26.936 116.701 26.512 116.949 26.128C117.205 25.736 117.517 25.424 117.885 25.192C118.261 24.96 118.693 24.844 119.181 24.844C119.653 24.844 120.017 24.944 120.273 25.144C120.537 25.344 120.733 25.584 120.861 25.864H120.897C120.905 25.8 120.909 25.74 120.909 25.684C120.909 25.62 120.909 25.568 120.909 25.528C120.909 24.544 120.777 23.816 120.513 23.344C120.249 22.872 119.845 22.636 119.301 22.636C119.101 22.636 118.885 22.66 118.653 22.708C118.429 22.756 118.225 22.82 118.041 22.9L117.777 22.12C117.969 22.024 118.221 21.94 118.533 21.868C118.845 21.796 119.145 21.76 119.433 21.76C120.313 21.76 120.957 22.076 121.365 22.708C121.773 23.34 121.977 24.256 121.977 25.456C121.977 25.944 121.933 26.452 121.845 26.98C121.757 27.5 121.617 28.008 121.425 28.504C121.241 28.992 121.005 29.436 120.717 29.836C120.429 30.228 120.085 30.54 119.685 30.772C119.285 31.004 118.829 31.12 118.317 31.12ZM118.425 30.232C118.825 30.232 119.177 30.08 119.481 29.776C119.785 29.472 120.041 29.076 120.249 28.588C120.457 28.092 120.613 27.568 120.717 27.016C120.605 26.632 120.429 26.312 120.189 26.056C119.949 25.792 119.645 25.66 119.277 25.66C118.917 25.66 118.581 25.8 118.269 26.08C117.965 26.36 117.721 26.736 117.537 27.208C117.353 27.672 117.261 28.192 117.261 28.768C117.261 29.184 117.349 29.532 117.525 29.812C117.709 30.092 118.009 30.232 118.425 30.232ZM125.318 31.12C124.574 31.12 123.998 30.904 123.59 30.472C123.19 30.032 122.99 29.44 122.99 28.696C122.99 28.184 123.062 27.68 123.206 27.184C123.358 26.68 123.574 26.224 123.854 25.816C124.134 25.4 124.47 25.068 124.862 24.82C125.262 24.572 125.71 24.448 126.206 24.448C126.814 24.448 127.27 24.58 127.574 24.844C127.886 25.108 128.042 25.476 128.042 25.948C128.042 26.364 127.91 26.744 127.646 27.088C127.39 27.432 126.986 27.708 126.434 27.916C125.882 28.116 125.166 28.216 124.286 28.216H124.082C124.074 28.288 124.066 28.364 124.058 28.444C124.058 28.524 124.058 28.596 124.058 28.66C124.058 29.148 124.178 29.536 124.418 29.824C124.658 30.104 125.022 30.244 125.51 30.244C125.814 30.244 126.102 30.2 126.374 30.112C126.646 30.024 126.942 29.904 127.262 29.752V30.652C126.958 30.788 126.658 30.9 126.362 30.988C126.074 31.076 125.726 31.12 125.318 31.12ZM124.322 27.364C124.802 27.364 125.246 27.324 125.654 27.244C126.062 27.156 126.39 27.016 126.638 26.824C126.886 26.624 127.01 26.36 127.01 26.032C127.01 25.824 126.938 25.656 126.794 25.528C126.658 25.392 126.442 25.324 126.146 25.324C125.762 25.324 125.39 25.504 125.03 25.864C124.678 26.216 124.414 26.716 124.238 27.364H124.322ZM131.366 31.12C130.654 31.12 130.078 30.92 129.638 30.52C129.198 30.12 128.978 29.52 128.978 28.72C128.978 28.144 129.054 27.6 129.206 27.088C129.366 26.568 129.59 26.112 129.878 25.72C130.174 25.328 130.53 25.02 130.946 24.796C131.362 24.564 131.826 24.448 132.338 24.448C132.618 24.448 132.898 24.476 133.178 24.532C133.458 24.588 133.71 24.664 133.934 24.76L133.634 25.636C133.474 25.564 133.282 25.496 133.058 25.432C132.842 25.368 132.606 25.336 132.35 25.336C131.894 25.336 131.494 25.492 131.15 25.804C130.806 26.108 130.538 26.516 130.346 27.028C130.154 27.54 130.058 28.1 130.058 28.708C130.058 29.196 130.182 29.576 130.43 29.848C130.686 30.112 131.034 30.244 131.474 30.244C131.754 30.244 132.018 30.204 132.266 30.124C132.522 30.044 132.774 29.952 133.022 29.848V30.736C132.798 30.848 132.546 30.94 132.266 31.012C131.994 31.084 131.694 31.12 131.366 31.12ZM136.732 31.12C136.052 31.12 135.524 30.968 135.148 30.664C134.772 30.36 134.584 29.892 134.584 29.26C134.584 29.1 134.596 28.92 134.62 28.72C134.652 28.512 134.684 28.32 134.716 28.144L135.472 24.568H136.54L135.928 27.364C136.136 27.324 136.36 27.292 136.6 27.268C136.84 27.236 137.088 27.22 137.344 27.22C138.072 27.22 138.592 27.38 138.904 27.7C139.216 28.02 139.372 28.428 139.372 28.924C139.372 29.316 139.272 29.68 139.072 30.016C138.88 30.344 138.588 30.612 138.196 30.82C137.812 31.02 137.324 31.12 136.732 31.12ZM136.828 30.256C137.356 30.256 137.736 30.132 137.968 29.884C138.208 29.636 138.328 29.344 138.328 29.008C138.328 28.72 138.236 28.496 138.052 28.336C137.868 28.168 137.548 28.084 137.092 28.084C136.844 28.084 136.608 28.096 136.384 28.12C136.16 28.136 135.952 28.164 135.76 28.204C135.712 28.428 135.676 28.62 135.652 28.78C135.636 28.932 135.628 29.064 135.628 29.176C135.628 29.48 135.712 29.736 135.88 29.944C136.048 30.152 136.364 30.256 136.828 30.256Z" fill="white"/>
</svg>
